# WaveFront *.obj file (generated by Cinema 4D)

mtllib ./BUtil_hexagon.mtl

v 0.250000 -0.433013 0.000000
v 0.500000 0.000000 0.000000
v 0.250000 0.433013 0.000000
v -0.250000 0.433013 0.000000
v -0.500000 0.000000 0.000000
v -0.250000 -0.433013 0.000000
# 6 vertices

vn 0.000000 0.000000 1.000000
# 1 normal

vt 0.750000 1.000000 0.000000
vt 1.000000 0.566987 0.000000
vt 0.000000 0.566987 0.000000
vt 0.250000 1.000000 0.000000
vt 0.750000 0.133975 0.000000
vt 0.250000 0.133975 0.000000
# 6 texture coordinates

o ??
usemtl default
f 4/4/1 5/3/1 2/2/1 3/1/1
f 5/3/1 6/6/1 1/5/1 2/2/1

