# WaveFront *.obj file (generated by Cinema 4D)

mtllib ./BUtil_dodecahedron.mtl

v 0.000000 -0.467086 0.178411
v 0.000000 -0.467086 -0.178411
v 0.467086 -0.178411 0.000000
v 0.467086 0.178411 0.000000
v 0.000000 0.467086 0.178411
v 0.000000 0.467086 -0.178411
v -0.467086 0.178411 0.000000
v -0.467086 -0.178411 0.000000
v -0.178411 0.000000 0.467086
v 0.178411 0.000000 0.467086
v 0.178411 0.000000 -0.467086
v -0.178411 0.000000 -0.467086
v 0.288675 -0.288675 -0.288675
v 0.288675 0.288675 -0.288675
v -0.288675 0.288675 -0.288675
v -0.288675 -0.288675 -0.288675
v 0.288675 -0.288675 0.288675
v 0.288675 0.288675 0.288675
v -0.288675 0.288675 0.288675
v -0.288675 -0.288675 0.288675
# 20 vertices

vn 0.000000 -0.525731 0.850651
vn 0.000000 -0.525731 0.850651
vn 0.000000 -0.525731 -0.850651
vn 0.000000 -0.525731 -0.850651
vn 0.525731 -0.850651 0.000000
vn 0.525731 -0.850651 0.000000
vn 0.525731 0.850651 0.000000
vn 0.525731 0.850651 0.000000
vn 0.000000 0.525731 0.850651
vn 0.000000 0.525731 0.850651
vn 0.000000 0.525731 -0.850651
vn 0.000000 0.525731 -0.850651
vn -0.525731 0.850651 0.000000
vn -0.525731 0.850651 0.000000
vn -0.525731 -0.850651 0.000000
vn -0.525731 -0.850651 0.000000
vn -0.850651 0.000000 0.525731
vn -0.850651 0.000000 0.525731
vn 0.850651 0.000000 0.525731
vn 0.850651 0.000000 0.525731
vn 0.850651 0.000000 -0.525731
vn 0.850651 0.000000 -0.525731
vn -0.850651 0.000000 -0.525731
vn -0.850651 0.000000 -0.525731
# 24 normals

vt 0.226000 0.223000 0.000000
vt 0.409000 0.355000 0.000000
vt 0.366000 0.223000 0.000000
vt 0.000000 1.000000 0.000000
vt 0.747000 0.438000 0.000000
vt 0.930000 0.570000 0.000000
vt 0.887000 0.438000 0.000000
vt 0.591000 0.223000 0.000000
vt 0.548000 0.355000 0.000000
vt 0.409000 0.785000 0.000000
vt 0.591000 0.652000 0.000000
vt 0.452000 0.652000 0.000000
vt 0.253000 0.570000 0.000000
vt 0.070000 0.437000 0.000000
vt 0.113000 0.570000 0.000000
vt 0.774000 0.785000 0.000000
vt 0.634000 0.785000 0.000000
vt 0.704000 1.000000 0.000000
vt 0.817000 0.918000 0.000000
vt 0.296000 0.008000 0.000000
vt 0.183000 0.090000 0.000000
vt 0.043000 0.355000 0.000000
vt 0.183000 0.355000 0.000000
vt 0.339000 0.570000 0.000000
vt 0.296000 0.437000 0.000000
vt 0.661000 0.438000 0.000000
vt 0.704000 0.570000 0.000000
vt 0.957000 0.652000 0.000000
vt 0.817000 0.652000 0.000000
vt 0.478000 0.141000 0.000000
vt 0.409000 0.090000 0.000000
vt 0.478000 0.570000 0.000000
vt 0.522000 0.438000 0.000000
vt 0.591000 0.918000 0.000000
vt 0.522000 0.867000 0.000000
vt 0.113000 0.141000 0.000000
vt 0.000000 0.223000 0.000000
vt 0.887000 0.867000 0.000000
vt 1.000000 0.785000 0.000000
# 39 texture coordinates

o ???
usemtl default
f 1/3/2 17/2/1 20/1/1
f 2/7/4 16/6/3 13/5/3
f 3/9/6 17/2/5 13/8/5
f 4/12/8 14/11/7 18/10/7
f 5/15/10 19/14/9 18/13/9
f 6/17/12 14/11/11 15/16/11
f 7/19/14 19/18/13 15/16/13
f 8/21/16 16/20/15 20/1/15
f 9/23/18 19/22/17 20/1/17
f 10/25/20 17/2/19 18/24/19
f 11/27/22 14/11/21 13/26/21
f 12/29/24 16/28/23 15/16/23
f 1/3/5 2/30/5 13/8/5 17/2/5
f 2/31/15 1/3/15 20/1/15 16/20/15
f 3/33/19 4/32/19 18/24/19 17/2/19
f 4/32/21 3/33/21 13/26/21 14/11/21
f 5/34/13 6/17/13 15/16/13 19/18/13
f 6/17/7 5/35/7 18/10/7 14/11/7
f 7/37/17 8/36/17 20/1/17 19/22/17
f 8/39/23 7/38/23 15/16/23 16/28/23
f 9/23/9 10/25/9 18/13/9 19/14/9
f 10/25/1 9/23/1 20/1/1 17/2/1
f 11/27/11 12/29/11 15/16/11 14/11/11
f 12/29/3 11/27/3 13/5/3 16/6/3

