# WaveFront *.obj file (generated by Cinema 4D)

mtllib ./BUtil_circle.mtl

v 0.490393 -0.097545 0.000000
v 0.500000 0.000000 0.000000
v 0.490393 0.097545 0.000000
v 0.461940 0.191342 0.000000
v 0.415735 0.277785 0.000000
v 0.353553 0.353553 0.000000
v 0.277785 0.415735 0.000000
v 0.191342 0.461940 0.000000
v 0.097545 0.490393 0.000000
v 0.000000 0.500000 0.000000
v -0.097545 0.490393 0.000000
v -0.191342 0.461940 0.000000
v -0.277785 0.415735 0.000000
v -0.353553 0.353553 0.000000
v -0.415735 0.277785 0.000000
v -0.461940 0.191342 0.000000
v -0.490393 0.097545 0.000000
v -0.500000 0.000000 0.000000
v -0.490393 -0.097545 0.000000
v -0.461940 -0.191342 0.000000
v -0.415735 -0.277785 0.000000
v -0.353553 -0.353553 0.000000
v -0.277785 -0.415735 0.000000
v -0.191342 -0.461940 0.000000
v -0.097545 -0.490393 0.000000
v 0.000000 -0.500000 0.000000
v 0.097545 -0.490393 0.000000
v 0.191342 -0.461940 0.000000
v 0.277785 -0.415735 0.000000
v 0.353553 -0.353553 0.000000
v 0.415735 -0.277785 0.000000
v 0.461940 -0.191342 0.000000
# 32 vertices

vn 0.000000 0.000000 1.000000
# 1 normal

vt 0.308658 0.961940 0.000000
vt 0.402455 0.990393 0.000000
vt 0.691342 0.961940 0.000000
vt 0.777785 0.915735 0.000000
vt 0.222215 0.915735 0.000000
vt 0.853553 0.853553 0.000000
vt 0.146447 0.853553 0.000000
vt 0.915735 0.777785 0.000000
vt 0.084265 0.777785 0.000000
vt 0.961940 0.691342 0.000000
vt 0.038060 0.691342 0.000000
vt 0.990393 0.597545 0.000000
vt 0.009607 0.597545 0.000000
vt 1.000000 0.500000 0.000000
vt 0.000000 0.500000 0.000000
vt 0.990393 0.402455 0.000000
vt 0.500000 1.000000 0.000000
vt 0.597545 0.990393 0.000000
vt 0.597545 0.009607 0.000000
vt 0.500000 0.000000 0.000000
vt 0.402455 0.009607 0.000000
vt 0.308658 0.038060 0.000000
vt 0.961940 0.308658 0.000000
vt 0.009607 0.402455 0.000000
vt 0.691342 0.038060 0.000000
vt 0.222215 0.084265 0.000000
vt 0.915735 0.222215 0.000000
vt 0.038060 0.308658 0.000000
vt 0.777785 0.084265 0.000000
vt 0.146447 0.146447 0.000000
vt 0.853553 0.146447 0.000000
vt 0.084265 0.222215 0.000000
# 32 texture coordinates

o ??
usemtl default
f 7/4/1 8/3/1 11/2/1 12/1/1
f 6/6/1 7/4/1 12/1/1 13/5/1
f 5/8/1 6/6/1 13/5/1 14/7/1
f 4/10/1 5/8/1 14/7/1 15/9/1
f 3/12/1 4/10/1 15/9/1 16/11/1
f 2/14/1 3/12/1 16/11/1 17/13/1
f 1/16/1 2/14/1 17/13/1 18/15/1
f 8/3/1 9/18/1 10/17/1 11/2/1
f 24/22/1 25/21/1 26/20/1 27/19/1
f 18/15/1 19/24/1 32/23/1 1/16/1
f 23/26/1 24/22/1 27/19/1 28/25/1
f 19/24/1 20/28/1 31/27/1 32/23/1
f 22/30/1 23/26/1 28/25/1 29/29/1
f 20/28/1 21/32/1 30/31/1 31/27/1
f 21/32/1 22/30/1 29/29/1 30/31/1

